# xmcd
#
# Track frame offsets:
#	150
#	19645
#	29341
#	48054
#	64344
#	80535
#	86870
#	107128
#	123567
#	135861
#	149174
#
# Disc length: 2159 seconds
#
# Revision: 0
# Processed by: cddbd v1.5.2PL0 Copyright (c) Steve Scherf et al.
# Submitted via: EasyCDDAExtractor 16.0.6.1
#
DISCID=96086d0b
DTITLE=Συλλογικός δίσκος - Μικρές Κυκλάδες-Μ.Θεοδωράκη-Ο.Ελύτη
DYEAR=1900
DGENRE=Λαϊκή
TTITLE0=Γιαννακοπούλου Ντόρα - Μαρίνα [Μ. Κυκλ., Μ. Θεοδωράκη-Ο. Ελύτη]
TTITLE1=Γιαννακοπούλου Ντόρα - Η Μάγια [Μ. Κυκλ., Μ. Θεοδωράκη-Ο. Ελύτη]
TTITLE2=Γιαννακοπούλου Ντόρα - Το τριζόνι [Μ. Κυκλ., Μ. Θεοδωράκη-Ο. Ελύτη]
TTITLE3=Γιαννακοπούλου Ντόρα - Του μικρού βορηά [Μ. Κυκλ., Μ. Θεοδωράκη-Ο. Ελύ
TTITLE3=τη]
TTITLE4=Γιαννακοπούλου Ντόρα - Τα Ελληνάκια [Μ. Κυκλ., Μ. Θεοδωράκη-Ο. Ελύτη]
TTITLE5=Γιαννακοπούλου Ντόρα - Τά 'δατε τα μάθατε [Μ. Κυκλ., Μ. Θεοδωράκη-Ο. Ε
TTITLE5=λύτη]
TTITLE6=Γιαννακοπούλου Ντόρα - Ο κήπος έμπαινε στη θάλασσα [Μ. Κυκλ., Μ. Θεοδω
TTITLE6=ράκη-Ο. Ελύτη]
TTITLE7=Θεοδωράκης Μίκης - Θα γίνης δικιά μου [Λιποτάκτες, Μ. Θεοδωράκη-Γ. Θεο
TTITLE7=δωράκη]
TTITLE8=Θεοδωράκης Μίκης - Δακρυσμένα μάτια [Λιποτάκτες, Μ. Θεοδωράκη-Γ. Θεοδω
TTITLE8=ράκη]
TTITLE9=Θεοδωράκης Μίκης - Σκέπασε ατμός τον έρωτά μου [Λιποτ., Μ.Θεοδωράκη-Γ.
TTITLE9=Θεοδωράκη]
TTITLE10=Θεοδωράκης Μίκης - Χάθηκα [Λιποτάκτες, Μ. Θεοδωράκη-Γ. Θεοδωράκη]
EXTD=
EXTT0=
EXTT1=
EXTT2=
EXTT3=
EXTT4=
EXTT5=
EXTT6=
EXTT7=
EXTT8=
EXTT9=
EXTT10=
PLAYORDER=
